# xmcd CD database file
#
# Track frame offsets:
#	150
#	14940
#	29645
#	44765
#	60220
#	74141
#	88830
#	102269
#	114659
#	129518
#	143842
#	156824
#	171580
#	184369
#	198148
#	212945
#	224356
#	239219
#	255980
#
# Disc length: 3585 seconds
#
# Revision: 0
# Processed by: cddbd v1.5.2PL0 Copyright (c) Steve Scherf et al.
# Submitted via: CDex 1.51
#
DISCID=340dff13
DTITLE=Billie Holiday - Kind Of Holiday [CD10) - The 40's Vol.2
DYEAR=2009
DGENRE=Jazz
TTITLE0=Baby Get Lost (Feather)
TTITLE1=You Can't Lose A Broken Heart (Johnson/Miller)
TTITLE2=My Sweet Hunk Of Trash (Johnson/Miller)
TTITLE3=You're My Thrill (Gorney/Clare)
TTITLE4=Crazy He Calls Me (Sigman/Russell)
TTITLE5=Please Tell Me Now (Clawson/Pope)
TTITLE6=Somebody's On My Mind (Holiday/Herzog)
TTITLE7=Gimme A Pigfoot And A Bottle Of Beer (Wilson)
TTITLE8=Now Or Never (Lewis/Holiday)
TTITLE9=God Bless The Child (Holiday/Herzog)
TTITLE10=This Is Heaven To Me (Schweikert/Reardon)
TTITLE11=Keeps On A Rainin' (Williams/Kortlander)
TTITLE12=Them There Eyes (Pinkard/Tracey/Tauber)
TTITLE13=The Blues Are Brewin' (Alter/De Lange)
TTITLE14=Do Your Duty (Wilson)
TTITLE15=Big Stuff (Bernstein)
TTITLE16=Lover Man (Davis/Sherman/Ramirez)
TTITLE17=Stormy Weather (Arlen/Koehler)
TTITLE18=That Ole Devil Called Love (Roberts/Fischer)
EXTD=YEAR: 2009
EXTT0=
EXTT1=
EXTT2=
EXTT3=
EXTT4=
EXTT5=
EXTT6=
EXTT7=
EXTT8=
EXTT9=
EXTT10=
EXTT11=
EXTT12=
EXTT13=
EXTT14=
EXTT15=
EXTT16=
EXTT17=
EXTT18=
PLAYORDER=
